<svg class="arrow-more_svg__icon" viewBox="0 0 1450 1024" width="32" height="32"><path fill="currentColor" d="M1390.933 546.133L972.8 964.267c-17.067 17.066-51.2 17.066-68.267 0L896 955.733c-17.067-17.066-17.067-51.2 0-68.266l324.267-332.8H76.8c-25.6 0-42.667-17.067-42.667-42.667v-8.533c0-25.6 17.067-42.667 42.667-42.667h1160.533L896 119.467c-17.067-17.067-17.067-51.2 0-68.267l8.533-8.533c17.067-17.067 51.2-17.067 68.267 0L1390.933 460.8c8.534 8.533 8.534 17.067 17.067 25.6v8.533c0 34.134-8.533 42.667-17.067 51.2z"></path></svg>
