<?xml version="1.0" standalone="no"?><!DOCTYPE svg PUBLIC "-//W3C//DTD SVG 1.1//EN" "http://www.w3.org/Graphics/SVG/1.1/DTD/svg11.dtd"><svg class="icon" width="200px" height="200.00px" viewBox="0 0 1024 1024" version="1.1" xmlns="http://www.w3.org/2000/svg"><path d="M512 512m-512 0a512 512 0 1 0 1024 0 512 512 0 1 0-1024 0Z" fill="#FE0049" /><path d="M459.403636 797.789091a173.149091 173.149091 0 0 1-172.683636-172.683636 168.96 168.96 0 0 1 193.163636-173.614546v81.92a101.469091 101.469091 0 0 0-111.243636 93.090909 90.763636 90.763636 0 0 0 181.527273 0V228.072727h71.68a282.996364 282.996364 0 0 0 115.898182 83.781818l-4.654546 81.92a200.610909 200.610909 0 0 1-100.538182-46.545454v279.272727a173.149091 173.149091 0 0 1-173.149091 171.287273z" fill="#FFFFFF" /></svg>