<?xml version="1.0" standalone="no"?><!DOCTYPE svg PUBLIC "-//W3C//DTD SVG 1.1//EN" "http://www.w3.org/Graphics/SVG/1.1/DTD/svg11.dtd"><svg class="icon" width="200px" height="200.00px" viewBox="0 0 1024 1024" version="1.1" xmlns="http://www.w3.org/2000/svg"><path d="M515.3 64.8c-247.2 0-447.5 200.4-447.5 447.5s200.3 447.5 447.5 447.5 447.5-200.3 447.5-447.5S762.4 64.8 515.3 64.8z m-60.9 521.3a6.1 6.1 0 0 1-0.7-1s-75.4-182.7-325.9-166.7c0 0 288.9-422.7 527.5 8.5l0.2 0.5c4.7 12.3 97.7 254.3 247.2 253.7 0 0-185.7 303.4-448.3-95z" fill="#F1CA00" /><path d="M655.5 427.4c-10.4-1.4-80.1-11.3-109.5-32.7 0 0 23.6 76.7 15.8 120.4 0 0-42.5-6.2-101.5-40.5 0 0 4.5 26.8-5.9 111.5 262.6 398.4 448.3 95 448.3 95-149.5 0.6-242.5-241.4-247.2-253.7z" fill="#E70204" /><path d="M460.3 474.6c59 34.3 101.5 40.5 101.5 40.5 7.8-43.7-15.8-120.4-15.8-120.4 29.4 21.4 99.1 31.3 109.5 32.7l-0.2-0.5c-238.6-431.2-527.5-8.5-527.5-8.5 250.5-16 325.9 166.7 325.9 166.7a6.1 6.1 0 0 0 0.7 1c10.4-84.7 5.9-111.5 5.9-111.5z" fill="#090504" /></svg>