<?xml version="1.0" standalone="no"?><!DOCTYPE svg PUBLIC "-//W3C//DTD SVG 1.1//EN" "http://www.w3.org/Graphics/SVG/1.1/DTD/svg11.dtd"><svg class="icon" width="200px" height="200.00px" viewBox="0 0 1024 1024" version="1.1" xmlns="http://www.w3.org/2000/svg"><path d="M224 70.4c-83.2 0-153.6 70.4-153.6 153.6v576c0 83.2 70.4 153.6 153.6 153.6h576c83.2 0 153.6-70.4 153.6-153.6v-576c0-83.2-70.4-153.6-153.6-153.6h-576z m576 889.6h-576C134.4 960 64 889.6 64 800v-576C64 134.4 134.4 64 224 64h576C889.6 64 960 134.4 960 224v576c0 89.6-70.4 160-160 160z" fill="#DBDCDC" /><path d="M224 70.4c-83.2 0-153.6 70.4-153.6 153.6v576c0 83.2 70.4 153.6 153.6 153.6h576c83.2 0 153.6-70.4 153.6-153.6v-576c0-83.2-70.4-153.6-153.6-153.6h-576z" fill="#FFFFFF" /><path d="M364.8 166.4c0-6.4-6.4-6.4-6.4-6.4h-12.8v25.6h6.4v-12.8c0-6.4 6.4-6.4 6.4-6.4s0 6.4 6.4 0l-6.4 19.2h6.4v-19.2c0 6.4 0 0 0 0z m-38.4 12.8c-6.4 0-6.4-6.4-6.4-6.4s0-6.4 6.4-6.4 6.4 6.4 6.4 6.4 0 6.4-6.4 6.4z m12.8-19.2h-6.4-6.4c-6.4 0-12.8 6.4-12.8 12.8v6.4c0 6.4 6.4 12.8 12.8 12.8h12.8v-32z m-70.4 6.4s6.4 0 0 0z m6.4 6.4c6.4 0 6.4 0 0 0 0-6.4 0-12.8-6.4-12.8s-12.8 6.4-12.8 12.8 6.4 12.8 12.8 12.8 6.4-6.4 6.4-12.8c0 6.4-6.4 6.4-6.4 6.4-6.4 0-6.4-6.4-6.4-6.4h12.8z m128-6.4s6.4 0 0 0-6.4 0 0 0z m6.4 6.4c6.4 0 6.4 0 0 0 0-6.4 0-12.8-6.4-12.8s-12.8 6.4-12.8 12.8 6.4 12.8 12.8 12.8 6.4-6.4 6.4-12.8c0 6.4-6.4 6.4-6.4 6.4-6.4 0-6.4-6.4-6.4-6.4h12.8z m-25.6 6.4s-6.4 0 0 0c-12.8 6.4-12.8 0-12.8 0s0-6.4 6.4-6.4c0-6.4 6.4-6.4 6.4 6.4 6.4-12.8 0-12.8-6.4-12.8s-12.8 6.4-12.8 12.8v6.4c0 6.4 6.4 12.8 12.8 12.8 6.4-12.8 12.8-19.2 6.4-19.2z m-89.6 0c6.4 0 6.4 0 0 0 6.4 0 6.4 0 0 0 6.4 0 6.4-6.4 6.4-6.4v-6.4-6.4-6.4h-12.8l6.4 25.6z m0-25.6c6.4 0 6.4 0 0 0 6.4 0 6.4 0 12.8 6.4v25.6l-6.4 6.4H281.6v-38.4h12.8z m-38.4 6.4l-6.4 6.4V185.6v-19.2h-12.8v-6.4h12.8v6.4H256z m-32 32h-6.4v-6.4l6.4 6.4c-6.4-6.4 0-6.4 0 0v-6.4l-12.8-25.6h6.4l6.4 12.8 6.4-12.8h6.4l-12.8 32z m-25.6-12.8c6.4 0 6.4 0 0 0 6.4 0 6.4 0 0 0 6.4 0 6.4 0 0 0 6.4 0 6.4 0 0 0l6.4-6.4H192v6.4h6.4z m0-12.8c6.4 0 6.4 0 0 0 6.4 0 6.4 0 0 0 6.4-6.4 6.4-6.4 0 0 6.4-6.4 6.4-6.4 0-6.4H192v6.4h6.4z m6.4-12.8h6.4v12.8h-6.4 6.4v6.4h-6.4H185.6v-19.2h19.2z m460.8 620.8h172.8v-25.6h-172.8v25.6z m0 96h172.8v-25.6h-172.8v25.6z m0-51.2h172.8v-25.6h-172.8v25.6z m-480-44.8h448v-25.6h-448v25.6z m0 96h448v-25.6h-448v25.6z m0-51.2h448v-25.6h-448v25.6z m256-640h192v-25.6h-192v25.6z m0 96h192v-25.6h-192v25.6z m0-51.2h192v-25.6h-192v25.6z m224-44.8h172.8v-25.6h-172.8v25.6z m0 96h172.8v-25.6h-172.8v25.6z m0-51.2h172.8v-25.6h-172.8v25.6z m-454.4 6.4c0-6.4 6.4-12.8 12.8-19.2 6.4 0 12.8 0 19.2 6.4 12.8 6.4 12.8 12.8 6.4 19.2 0 6.4-12.8 12.8-19.2 12.8-6.4 0-19.2-6.4-19.2-19.2zM243.2 320l57.6-83.2 25.6 32 32-57.6 51.2 102.4V198.4H185.6v153.6h230.4V320H243.2z" fill="#DBDCDC" /><path d="M64 256v556.8l896-51.2V224v-12.8L64 256z" fill="#E62318" /><path d="M864 569.6v-44.8l-134.4 12.8V512l-64 6.4v19.2l-134.4 6.4v44.8l134.4-6.4v89.6h64V576z" fill="#FFFFFF" /><path d="M307.2 428.8l-51.2-64-70.4 6.4 51.2 64 70.4-6.4z m0 83.2L256 448l-70.4 6.4 51.2 64L307.2 512z m70.4 76.8l51.2 102.4 70.4-6.4L448 582.4l-70.4 6.4z m153.6 96l64-6.4 44.8-83.2-64 6.4-44.8 83.2z m294.4-102.4l-64 6.4 44.8 76.8 64-6.4-44.8-76.8zM531.2 492.8v44.8H576l121.6-57.6 121.6 44.8h44.8v-51.2H832l-83.2-32 108.8-51.2V320l-64 6.4-147.2 6.4-51.2-25.6-64 102.4 57.6 19.2 32-57.6 179.2-12.8v12.8l-96 51.2-83.2-25.6-25.6 38.4 44.8 19.2-76.8 32-32 6.4z" fill="#FFFFFF" /><path d="M371.2 576l121.6-6.4v-44.8l-83.2 6.4V345.6h-64v185.6l-185.6 12.8v44.8l128-6.4-57.6 76.8H160v44.8l121.6-6.4z" fill="#FFFFFF" /></svg>