<?xml version="1.0" standalone="no"?><!DOCTYPE svg PUBLIC "-//W3C//DTD SVG 1.1//EN" "http://www.w3.org/Graphics/SVG/1.1/DTD/svg11.dtd"><svg class="icon" width="200px" height="200.00px" viewBox="0 0 1024 1024" version="1.1" xmlns="http://www.w3.org/2000/svg"><path fill="#0cce36" d="M579.52 512a24.64 24.64 0 0 0-23.36 24.32 24.32 24.32 0 0 0 23.36 21.76c17.6 0 30.08-10.88 30.08-21.76a26.88 26.88 0 0 0-30.08-24.32z m-76.8-112.64a27.84 27.84 0 0 0 30.08-29.12 27.52 27.52 0 0 0-30.08-29.12 32 32 0 0 0-34.24 29.12 32 32 0 0 0 34.24 28.8zM512 0a512 512 0 1 0 512 512A512 512 0 0 0 512 0z m-96 641.6a275.84 275.84 0 0 1-82.56-13.44L248.32 672l24.32-71.68a192 192 0 0 1-94.4-160c0-113.6 106.88-200.32 236.8-200.32 115.2 0 217.6 68.48 237.76 165.12a116.16 116.16 0 0 0-22.4-2.56 193.92 193.92 0 0 0-200.96 187.84 200.96 200.96 0 0 0 6.72 49.6 174.4 174.4 0 0 1-20.16 1.6z m347.84 81.6l16.64 60.16-64-35.84a359.36 359.36 0 0 1-71.68 12.48c-111.68 0-200.32-76.8-200.32-171.84S532.8 416 644.48 416c105.92 0 200.96 76.8 200.96 171.84a176.96 176.96 0 0 1-82.24 135.68z m-425.28-384a32 32 0 0 0-35.84 29.12 32 32 0 0 0 35.84 29.12 28.8 28.8 0 0 0 30.08-29.12 28.16 28.16 0 0 0-31.04-27.84zM710.4 512a24 24 0 0 0-23.36 24.32 23.68 23.68 0 0 0 23.36 21.76 26.88 26.88 0 0 0 29.12-21.76 26.56 26.56 0 0 0-29.12-24.32z"  /></svg>