<?xml version="1.0" standalone="no"?><!DOCTYPE svg PUBLIC "-//W3C//DTD SVG 1.1//EN" "http://www.w3.org/Graphics/SVG/1.1/DTD/svg11.dtd"><svg class="icon" width="200px" height="200.00px" viewBox="0 0 1024 1024" version="1.1" xmlns="http://www.w3.org/2000/svg"><path fill="#0463f1" d="M512 1024a512 512 0 1 1 512-512 512 512 0 0 1-512 512zM382.132347 267.521578s-36.221948 2.104398-48.97986 24.48993-54.31977 137.36457-54.31977 137.364571 13.836416 6.365804 37.274147-10.653514a92.067406 92.067406 0 0 0 30.882039-46.849158l42.587751-2.130703 1.078504 121.397452s-73.496095-1.078504-88.411015 0-23.411426 40.457049-23.411426 40.457049h111.822441a371.505138 371.505138 0 0 1-38.352651 116.083847 332.915742 332.915742 0 0 1-83.071105 87.332512 95.013564 95.013564 0 0 0 77.731196-6.392109c38.352651-22.332922 66.630497-120.687217 66.630497-120.687217l89.936704 110.060008s8.180847-52.399507-1.473079-67.182902-62.211262-74.285245-62.211262-74.285245l-22.937936 20.25483 16.335388-65.104809h97.95972s0-38.352651-19.15002-40.483354-78.91492 0-78.91492 0v-119.293054h88.38471s-1.078504-39.45746-18.097821-39.45746h-143.651459l22.332922-64.946979z m169.982737 61.290588v358.457871h36.011509l13.152486 45.007809 63.342376-45.007809h89.01603V328.812166h-201.522401z"  /><path fill="#0463f1" d="M594.781751 368.637896h117.89889v277.780517h-41.877517l-53.372791 40.272915-11.626798-40.272915h-10.995479z"  /></svg>