<svg xmlns="http://www.w3.org/2000/svg" width="28" height="18"><g fill="none" fill-rule="evenodd"><rect fill="#FAFBFC" width="28" height="18" rx="1"/><path d="M28 17v-4c-1.555.718-3.404 1.077-5.545 1.077C19.243 14.077 16.868 13 14 13c-1.451 0-3.953 1.077-8.578 1.077-.979 0-2.786-.359-5.422-1.077v4a1 1 0 0 0 1 1h26a1 1 0 0 0 1-1z" fill="#6D7680"/><path d="M0 12.52C1.85 11.507 3.958 11 6.322 11c3.546 0 4.855 1.52 7.678 1.52 2.823 0 5.115-1.52 8.513-1.52 2.265 0 4.094.507 5.487 1.52V14H0v-1.48z" fill="#6D7680" opacity=".5"/></g></svg>